<svg version="1.1" id="Layer_1" xmlns="http://www.w3.org/2000/svg" xmlns:xlink="http://www.w3.org/1999/xlink" x="0px" y="0px"
	 width="100%" viewBox="0 0 512 512" enable-background="new 0 0 512 512" xml:space="preserve">
<path fill="transparent" opacity="1.000000" stroke="none"
	d="
M513.000000,263.000000
	C513.000000,346.297577 513.000000,429.595184 513.000000,512.946411
	C342.442322,512.946411 171.884628,512.946411 1.000000,512.946411
	C1.000000,429.978271 1.000000,346.956116 1.338652,263.542938
	C5.262145,267.491425 9.749488,269.093018 15.471774,269.088776
	C165.784622,268.976868 316.097565,269.000000 466.410492,269.000000
	C468.153259,269.000000 469.896027,269.000000 471.638824,269.000000
	C470.773499,271.236053 469.275421,272.250641 468.018188,273.506348
	C437.245636,304.242249 406.593567,335.100037 375.634247,365.646393
	C371.472351,369.752777 372.032715,377.851990 374.951721,381.421875
	C380.031921,387.634979 387.813599,387.688049 394.060883,381.442902
	C432.481262,343.035736 470.883911,304.610809 509.306763,266.206116
	C510.456970,265.056488 511.765350,264.065125 513.000000,263.000000
z"/>
<path fill="transparent" opacity="1.000000" stroke="none"
	d="
M1.000000,249.000000
	C1.000000,166.368835 1.000000,83.737671 1.000000,1.053252
	C171.557861,1.053252 342.115753,1.053252 513.000000,1.053252
	C513.000000,84.355064 513.000000,167.710556 512.660645,251.448441
	C511.358215,250.531311 510.541412,249.085663 509.410767,247.953415
	C470.666565,209.155136 431.895935,170.383240 393.105225,131.631485
	C392.092712,130.619995 390.933472,129.583191 389.639832,129.054672
	C383.560638,126.571106 377.215179,128.400650 373.798523,133.826630
	C371.412537,137.615677 371.885315,144.532059 376.548553,149.160980
	C404.699158,177.104385 432.716705,205.182053 460.722382,233.271072
	C464.253601,236.812820 467.454224,240.684158 471.346649,245.000000
	C468.702301,245.000000 466.926056,245.000000 465.149780,245.000000
	C317.320618,245.000000 169.491455,244.997864 21.662285,245.007172
	C15.170718,245.007568 8.440772,243.931747 2.960467,248.935379
	C2.593348,249.270569 1.666511,248.992722 1.000000,249.000000
z"/>
<path fill="#000000" opacity="1.000000" stroke="yellow"
	d="
M1.000000,249.464645
	C1.666511,248.992722 2.593348,249.270569 2.960467,248.935379
	C8.440772,243.931747 15.170718,245.007568 21.662285,245.007172
	C169.491455,244.997864 317.320618,245.000000 465.149780,245.000000
	C466.926056,245.000000 468.702301,245.000000 471.346649,245.000000
	C467.454224,240.684158 464.253601,236.812820 460.722382,233.271072
	C432.716705,205.182053 404.699158,177.104385 376.548553,149.160980
	C371.885315,144.532059 371.412537,137.615677 373.798523,133.826630
	C377.215179,128.400650 383.560638,126.571106 389.639832,129.054672
	C390.933472,129.583191 392.092712,130.619995 393.105225,131.631485
	C431.895935,170.383240 470.666565,209.155136 509.410767,247.953415
	C510.541412,249.085663 511.358215,250.531311 512.660645,251.915421
	C513.000000,255.361282 513.000000,258.722565 513.000000,262.541931
	C511.765350,264.065125 510.456970,265.056488 509.306763,266.206116
	C470.883911,304.610809 432.481262,343.035736 394.060883,381.442902
	C387.813599,387.688049 380.031921,387.634979 374.951721,381.421875
	C372.032715,377.851990 371.472351,369.752777 375.634247,365.646393
	C406.593567,335.100037 437.245636,304.242249 468.018188,273.506348
	C469.275421,272.250641 470.773499,271.236053 471.638824,269.000000
	C469.896027,269.000000 468.153259,269.000000 466.410492,269.000000
	C316.097565,269.000000 165.784622,268.976868 15.471774,269.088776
	C9.749488,269.093018 5.262145,267.491425 1.338652,263.075958
	C1.000000,258.643097 1.000000,254.286194 1.000000,249.464645
z"/>
</svg>