<?xml version="1.0" encoding="UTF-8" standalone="no"?>
<!DOCTYPE svg PUBLIC "-//W3C//DTD SVG 20010904//EN"
              "http://www.w3.org/TR/2001/REC-SVG-20010904/DTD/svg10.dtd">

<svg xmlns="http://www.w3.org/2000/svg"
     width="5.68889in" height="5.68889in"
     viewBox="0 0 512 512">
  <path id="Selection"
        fill="none" stroke="black" stroke-width="1"
        d="M 473.00,246.00
           C 473.00,246.00 430.00,202.00 430.00,202.00
             430.00,202.00 403.00,175.00 403.00,175.00
             403.00,175.00 385.00,157.00 385.00,157.00
             381.78,153.78 376.47,149.00 374.57,145.00
             370.05,135.49 378.04,126.73 388.00,129.57
             392.39,130.82 395.85,134.86 399.00,138.00
             399.00,138.00 418.00,157.00 418.00,157.00
             418.00,157.00 487.00,226.00 487.00,226.00
             491.60,230.60 508.43,246.61 510.69,251.00
             511.92,253.41 512.16,256.33 511.94,259.00
             511.50,264.51 507.69,267.30 504.00,271.00
             504.00,271.00 486.00,289.00 486.00,289.00
             486.00,289.00 409.00,366.00 409.00,366.00
             404.31,370.69 393.79,382.55 388.00,384.35
             382.50,386.06 376.09,383.91 374.43,377.99
             373.66,375.25 373.90,370.55 375.17,368.00
             377.13,364.09 392.85,349.15 397.00,345.00
             397.00,345.00 448.00,294.00 448.00,294.00
             453.97,288.03 468.83,274.70 472.00,268.00
             472.00,268.00 111.00,268.00 111.00,268.00
             111.00,268.00 17.00,268.00 17.00,268.00
             6.83,267.95 1.58,266.28 2.02,255.01
             2.35,246.39 10.19,246.01 17.00,246.00
             17.00,246.00 473.00,246.00 473.00,246.00 Z" />
</svg>
