<svg version="1.1" id="Layer_1" xmlns="http://www.w3.org/2000/svg" xmlns:xlink="http://www.w3.org/1999/xlink" x="0px" y="0px"
	 width="100%" viewBox="0 0 368 339" enable-background="new 0 0 368 339" xml:space="preserve">
<path fill="#228b22" opacity="1.000000" stroke="#228b22" stroke-width="5px"
	d="
M216.966141,298.542664
	C220.469711,296.982239 224.029739,295.536377 227.467117,293.841675
	C242.816757,286.274017 246.801025,267.756256 235.838394,254.782181
	C223.895889,240.648392 210.297272,227.894623 197.185181,214.774567
	C186.700012,204.283051 175.862015,194.144165 165.259338,183.924637
	C176.612289,165.168060 187.139069,147.364578 198.071716,129.813934
	C213.206177,105.517967 229.553375,82.110794 250.344360,62.168980
	C260.115997,52.796455 271.319427,45.675140 284.751312,43.299255
	C291.159302,42.165787 298.388641,40.458267 303.700470,47.066654
	C304.568542,48.146629 306.474609,48.392262 307.900909,49.023525
	C308.053864,47.294880 308.912384,45.184830 308.223846,43.911049
	C306.362061,40.466785 303.842468,37.378109 301.096313,33.451237
	C310.713776,36.067188 319.172302,39.212006 326.236206,45.652489
	C333.848114,52.592575 337.562195,60.649010 337.215790,71.261467
	C336.912537,80.554001 334.301941,88.780457 329.766296,96.543137
	C323.761353,106.820404 316.109528,115.774132 306.621063,123.023232
	C298.742615,129.042297 290.659485,134.793228 282.769745,140.797958
	C279.903198,142.979645 277.333954,145.552002 274.629059,147.946106
	C274.918976,148.476685 275.208893,149.007278 275.498840,149.537857
	C278.388916,148.813553 281.478668,148.522018 284.136902,147.295288
	C302.489502,138.825882 319.146362,128.120438 332.338135,112.329407
	C343.632843,98.809227 351.587311,84.565407 351.236328,66.100685
	C350.984436,52.849197 345.276520,43.336964 335.202240,36.112389
	C317.737091,23.587591 297.337982,19.394297 276.500031,18.254772
	C263.583954,17.548458 250.436172,18.586142 237.569565,20.228792
	C226.565674,21.633635 215.507751,24.123627 205.021606,27.727703
	C188.621582,33.364376 173.184402,41.010468 159.703201,52.497879
	C148.881927,61.718754 140.693344,72.497635 135.236618,85.453796
	C128.646606,101.100769 128.513412,117.613503 131.309143,133.787674
	C133.843506,148.449890 140.448196,162.009262 148.308167,174.727554
	C151.342194,179.636948 151.973114,184.236404 148.950714,189.324234
	C144.653534,196.557999 140.715866,204.008865 136.314224,211.176376
	C127.281517,225.884964 118.421150,240.697433 105.846100,252.894501
	C102.735168,255.911896 99.495529,256.756653 96.049393,255.848389
	C82.872948,252.375626 69.485794,251.537079 55.989555,252.046402
	C42.615559,252.551102 30.628054,255.953964 20.842546,266.343384
	C12.884098,274.792969 14.476228,288.365631 25.662159,293.927856
	C35.273567,298.707184 45.213432,297.501007 54.688774,294.522156
	C68.658813,290.130249 81.075722,282.479797 92.857941,273.768066
	C97.505524,270.331696 101.917503,265.865601 108.988754,268.949890
	C125.216019,276.027802 141.635193,282.665375 157.944717,289.556793
	C158.492599,289.788330 158.698074,290.830200 159.475189,292.243896
	C156.512726,291.741791 154.328293,291.072052 152.137466,291.050354
	C140.586487,290.935883 129.677582,288.258118 119.110916,283.658417
	C114.084976,281.470612 108.756035,279.978851 103.564354,278.171783
	C103.054672,278.896454 102.544991,279.621124 102.035309,280.345825
	C103.601616,282.550629 104.686104,285.720978 106.821030,286.786316
	C114.421120,290.578949 122.149170,294.423187 130.248398,296.843781
	C147.468872,301.990448 165.294769,303.189911 183.220642,303.053528
	C185.276886,303.037872 187.452530,303.458160 189.379791,304.186798
	C203.679932,309.593475 217.709778,315.827972 232.256866,320.438354
	C248.525665,325.594360 265.261719,328.484436 282.629547,327.159088
	C294.415710,326.259674 305.210571,323.158447 315.126129,316.956177
	C332.834015,305.879669 337.471832,289.136017 332.757355,271.442169
	C329.501923,259.224213 321.918915,249.728195 312.333923,242.157394
	C305.566956,236.812454 297.641907,232.886353 290.043121,228.670654
	C287.759033,227.403458 284.724335,226.833084 282.604828,230.634125
	C283.224518,231.028549 283.766754,231.435364 284.361084,231.740768
	C286.378601,232.777435 288.394501,233.820938 290.446655,234.785965
	C305.462372,241.847092 317.971924,251.650131 324.981689,267.164398
	C330.495728,279.368225 329.899963,294.074524 318.303375,303.186646
	C312.141602,308.028320 305.507996,311.938690 297.572968,312.988739
	C289.499237,314.057129 281.353363,316.083618 273.336365,315.693115
	C263.527679,315.215271 253.703491,313.152222 244.099548,310.874268
	C233.012741,308.244598 222.158752,304.633453 211.203659,301.448456
	C211.255295,301.011871 211.306931,300.575287 211.358551,300.138702
	C212.999817,299.742035 214.641068,299.345337 216.966141,298.542664
z"/>

</svg>