<?xml version="1.0" encoding="UTF-8" standalone="no"?>
<svg width="1.66667in" height="1.66667in" viewBox="0 0 500 500" version="1.1" id="svg3" sodipodi:docname="logo_site.svg"
   inkscape:export-filename="logo_site_1.svg" inkscape:export-xdpi="96" inkscape:export-ydpi="96"
   xmlns:inkscape="http://www.inkscape.org/namespaces/inkscape"
   xmlns:sodipodi="http://sodipodi.sourceforge.net/DTD/sodipodi-0.dtd" xmlns="http://www.w3.org/2000/svg"
   xmlns:svg="http://www.w3.org/2000/svg">
   <defs id="defs7" />
   <sodipodi:namedview id="namedview5" pagecolor="#505050" bordercolor="#ffffff" borderopacity="1"
      inkscape:showpageshadow="0" inkscape:pageopacity="0" inkscape:pagecheckerboard="1" inkscape:deskcolor="#505050"
      inkscape:document-units="in" showgrid="false" showguides="false" />
   <path style="fill:forestgreen;stroke-width:10;stroke:darkseagreen"
      d="m 248.296,489.98542 c -24.30138,-0.51872 -48.17358,-6.05986 -72.32621,-7.51221 -20.35734,0 -40.71469,0 -61.07203,0 0,-156.60499 0,-313.20999 0,-469.814983 16.02602,0 32.05205,0 48.07807,0 0.65532,29.847922 -0.59284,59.890883 1.85289,89.581303 2.2553,-25.147704 13.20216,-51.024955 34.52302,-66.020916 28.00707,-21.179511 64.42793,-24.183217 98.30993,-22.494144 26.32261,-0.341723 52.11797,5.352456 77.70204,10.861691 3.5e-4,15.799873 6.6e-4,31.599748 9.7e-4,47.399622 C 338.95191,60.93773 300.09096,56.382733 262.26507,61.086049 238.89452,64.62056 216.1168,82.208566 215.30614,107.38806 c -1.63864,23.56656 -2.37725,48.27566 5.19797,70.91086 15.06437,28.84731 48.10499,39.45955 74.19195,55.70866 32.13872,19.50853 71.93608,33.46668 89.09976,69.7169 14.72741,30.90866 10.26626,66.28481 9.38248,99.39136 -2.41687,36.32015 -29.40931,67.75184 -63.91962,78.01125 -25.96896,8.87308 -53.80224,9.59951 -80.96268,8.85833 z"
      id="path285" />
</svg>